<svg xmlns="http://www.w3.org/2000/svg" xmlns:xlink="http://www.w3.org/1999/xlink" width="1080" zoomAndPan="magnify" viewBox="0 0 810 809.999993" height="1080" preserveAspectRatio="xMidYMid meet" version="1.0"><defs><clipPath id="7d5d1f81c4"><path d="M 55 72.898438 L 799 72.898438 L 799 729.148438 L 55 729.148438 Z M 55 72.898438 " clip-rule="nonzero"/></clipPath></defs><path fill="#fcb63a" d="M 751.066406 401.074219 C 751.066406 578.511719 607.234375 722.351562 429.808594 722.351562 C 252.382812 722.351562 108.550781 578.511719 108.550781 401.074219 C 108.550781 223.632812 252.382812 79.792969 429.808594 79.792969 C 607.234375 79.792969 751.066406 223.632812 751.066406 401.074219 Z M 751.066406 401.074219 C 751.066406 578.511719 607.234375 722.351562 429.808594 722.351562 C 252.382812 722.351562 108.550781 578.511719 108.550781 401.074219 C 108.550781 223.632812 252.382812 79.792969 429.808594 79.792969 C 607.234375 79.792969 751.066406 223.632812 751.066406 401.074219 Z M 751.066406 401.074219 " fill-opacity="1" fill-rule="nonzero"/><g clip-path="url(#7d5d1f81c4)"><path fill="#000000" d="M 789.09375 352.878906 C 786.773438 352.425781 773.09375 353.675781 752.324219 356.015625 C 730.296875 196.304688 592.953125 72.898438 427.296875 72.898438 C 261.636719 72.898438 124.292969 196.308594 102.265625 356.015625 C 81.5 353.675781 67.816406 352.425781 65.496094 352.878906 C 55.695312 354.839844 54.898438 373.910156 55.957031 389.5625 C 57.027344 405.378906 64.457031 463.902344 115.480469 503.320312 C 158.550781 634.359375 282.039062 729.246094 427.296875 729.246094 C 572.558594 729.246094 696.0625 634.355469 739.128906 503.308594 C 790.140625 463.890625 797.566406 405.378906 798.636719 389.5625 C 799.691406 373.910156 798.894531 354.839844 789.09375 352.878906 Z M 427.296875 86.683594 C 585.886719 86.683594 717.394531 204.746094 738.632812 357.597656 C 659.46875 366.90625 509.917969 387.15625 453.433594 394.867188 L 401.15625 394.867188 C 344.675781 387.15625 195.121094 366.90625 115.957031 357.597656 C 137.195312 204.746094 268.703125 86.683594 427.296875 86.683594 Z M 427.296875 715.460938 C 294.484375 715.460938 180.664062 632.660156 134.6875 515.96875 C 157.460938 528.660156 186.800781 537.761719 224.609375 540.125 C 230.441406 540.492188 236.070312 540.667969 241.53125 540.667969 C 318.597656 540.667969 359.332031 505.726562 380.183594 475.246094 C 396.027344 452.089844 402.816406 428.550781 405.644531 414.683594 L 448.949219 414.683594 C 451.777344 428.550781 458.566406 452.089844 474.410156 475.246094 C 495.261719 505.726562 535.984375 540.667969 613.0625 540.667969 C 618.519531 540.667969 624.160156 540.488281 629.984375 540.125 C 667.789062 537.761719 697.128906 528.664062 719.898438 515.972656 C 673.925781 632.660156 560.109375 715.460938 427.296875 715.460938 Z M 427.296875 509.40625 C 431.101562 509.40625 434.1875 506.320312 434.1875 502.515625 L 434.1875 470.671875 C 434.1875 466.867188 431.101562 463.78125 427.296875 463.78125 C 423.492188 463.78125 420.40625 466.867188 420.40625 470.671875 L 420.40625 502.515625 C 420.40625 506.320312 423.492188 509.40625 427.296875 509.40625 Z M 484.820312 358.398438 C 485.554688 358.398438 486.304688 358.28125 487.039062 358.03125 L 586.675781 324.128906 C 590.28125 322.90625 592.207031 318.988281 590.980469 315.386719 C 589.757812 311.785156 585.84375 309.855469 582.238281 311.082031 L 482.601562 344.980469 C 478.996094 346.207031 477.070312 350.121094 478.296875 353.726562 C 479.269531 356.59375 481.949219 358.398438 484.820312 358.398438 Z M 371.992188 344.980469 L 272.355469 311.082031 C 268.746094 309.859375 264.835938 311.785156 263.609375 315.386719 C 262.382812 318.988281 264.3125 322.902344 267.914062 324.128906 L 367.550781 358.03125 C 368.289062 358.28125 369.035156 358.398438 369.773438 358.398438 C 372.640625 358.398438 375.320312 356.59375 376.296875 353.726562 C 377.519531 350.121094 375.59375 346.207031 371.992188 344.980469 Z M 448.910156 578.691406 C 440.476562 578.691406 431.070312 576.929688 420.738281 573.398438 C 417.136719 572.167969 415.214844 568.25 416.441406 564.648438 C 417.675781 561.046875 421.589844 559.125 425.191406 560.355469 C 443.269531 566.53125 457.222656 566.4375 466.671875 560.070312 C 479.167969 551.652344 480.273438 534.335938 480.28125 534.160156 C 480.496094 530.367188 483.777344 527.472656 487.523438 527.648438 C 491.3125 527.847656 494.230469 531.058594 494.046875 534.847656 C 494 535.832031 492.679688 559.0625 474.496094 571.417969 C 467.359375 576.265625 458.804688 578.691406 448.910156 578.691406 Z M 448.910156 578.691406 " fill-opacity="1" fill-rule="nonzero"/></g><path fill="#ffffff" d="M 607.03125 483.726562 C 605.832031 483.726562 604.617188 483.414062 603.511719 482.753906 C 600.242188 480.804688 599.171875 476.574219 601.117188 473.308594 L 629.878906 425.023438 C 631.824219 421.753906 636.054688 420.679688 639.324219 422.632812 C 642.59375 424.578125 643.667969 428.808594 641.71875 432.078125 L 612.957031 480.359375 C 611.667969 482.523438 609.378906 483.726562 607.03125 483.726562 Z M 660.207031 478.304688 L 688.96875 430.023438 C 690.917969 426.753906 689.847656 422.527344 686.574219 420.578125 C 683.308594 418.625 679.074219 419.699219 677.128906 422.972656 L 648.367188 471.253906 C 646.421875 474.523438 647.492188 478.753906 650.761719 480.699219 C 651.867188 481.359375 653.082031 481.671875 654.28125 481.671875 C 656.628906 481.671875 658.921875 480.472656 660.207031 478.304688 Z M 188.464844 480.359375 L 217.226562 432.078125 C 219.175781 428.808594 218.105469 424.578125 214.835938 422.632812 C 211.5625 420.679688 207.335938 421.753906 205.386719 425.023438 L 176.625 473.308594 C 174.679688 476.574219 175.75 480.804688 179.019531 482.753906 C 180.125 483.414062 181.339844 483.726562 182.539062 483.726562 C 184.886719 483.726562 187.175781 482.523438 188.464844 480.359375 Z M 235.714844 478.304688 L 264.480469 430.023438 C 266.425781 426.753906 265.355469 422.527344 262.085938 420.578125 C 258.816406 418.628906 254.585938 419.699219 252.640625 422.972656 L 223.878906 471.253906 C 221.929688 474.523438 223 478.753906 226.269531 480.699219 C 227.375 481.359375 228.589844 481.671875 229.789062 481.671875 C 232.136719 481.671875 234.425781 480.472656 235.714844 478.304688 Z M 102.082031 213.25 C 102.082031 213.25 70.496094 198.613281 61.25 166.253906 C 54.316406 182.820312 40.449219 208.242188 16.566406 211.324219 C 26.96875 217.875 57.785156 237.136719 62.40625 263.714844 C 66.257812 247.152344 79.738281 222.113281 102.082031 213.25 Z M 102.082031 213.25 " fill-opacity="1" fill-rule="nonzero"/><path fill="#000000" d="M 123.226562 213.324219 C 123.226562 209.519531 120.140625 206.433594 116.335938 206.433594 C 90.117188 206.433594 68.785156 181.035156 68.785156 149.816406 C 68.785156 146.011719 65.703125 142.925781 61.894531 142.925781 C 61.882812 142.925781 61.867188 142.929688 61.855469 142.929688 C 61.839844 142.929688 61.828125 142.925781 61.8125 142.925781 C 58.007812 142.925781 54.921875 146.011719 54.921875 149.816406 C 54.921875 181.035156 33.625 206.433594 7.445312 206.433594 C 3.640625 206.433594 0.554688 209.519531 0.554688 213.324219 C 0.554688 215.25 1.347656 216.988281 2.621094 218.238281 C 3.886719 219.664062 5.710938 220.585938 7.765625 220.585938 C 33.898438 220.585938 55.160156 245.980469 55.160156 277.199219 C 55.160156 281.003906 58.246094 284.089844 62.050781 284.089844 C 65.855469 284.089844 68.941406 281.003906 68.941406 277.199219 C 68.941406 245.980469 90.203125 220.585938 116.335938 220.585938 C 120.140625 220.585938 123.226562 217.5 123.226562 213.691406 C 123.226562 213.628906 123.207031 213.570312 123.207031 213.507812 C 123.207031 213.445312 123.226562 213.386719 123.226562 213.324219 Z M 62.050781 244.800781 C 55.847656 231.09375 45.84375 220.015625 33.652344 213.433594 C 45.769531 206.816406 55.699219 195.753906 61.859375 182.09375 C 68.054688 195.816406 78.0625 206.917969 90.273438 213.527344 C 78.160156 220.117188 68.222656 231.15625 62.050781 244.800781 Z M 62.050781 244.800781 " fill-opacity="1" fill-rule="nonzero"/></svg>